<svg xmlns="http://www.w3.org/2000/svg" xmlns:xlink="http://www.w3.org/1999/xlink" width="1366" height="180" viewBox="0 0 1366 180"><defs><style>.a{opacity:0.8;fill:url(#a);}.b{fill:#d91e39;}.c{fill:#fff;}</style><linearGradient id="a" x1="0.5" y1="1" x2="0.5" gradientUnits="objectBoundingBox"><stop offset="0" stop-color="#1e3e60" stop-opacity="0"/><stop offset="1"/></linearGradient></defs><rect class="a" width="1366" height="180"/><g transform="translate(-640.143 -123.802)"><path class="b" d="M710.1,192.888v-6.112c-.151-1.358-2.415-2.566-2.415-2.566L664.6,168.061l-1.057-.377c-3.7-.906-3.4,2.49-3.4,2.49v4.3c0,1.811,2.867,2.717,2.867,2.717L701.5,189.869l-38.486,12.678s-2.792.906-2.792,2.717l-.075,4.377s-.3,3.471,3.4,2.49l1.057-.377L707.69,195.68s2.264-1.207,2.415-2.566v-3.169" transform="translate(0 -5.457)"/><path class="c" d="M836.173,162.294h-3.094a.955.955,0,0,1-1.056-1.056v-.755a.955.955,0,0,1,1.056-1.056h9.584a.955.955,0,0,1,1.057,1.056v.755a.955.955,0,0,1-1.057,1.056h-3.094v9.81a.955.955,0,0,1-1.056,1.056H837.23a.955.955,0,0,1-1.056-1.056Z" transform="translate(-115.731)"/><path class="c" d="M871.755,160.482a.924.924,0,0,1,1.056-1.056h1.283a.935.935,0,0,1,.981,1.056v4.452h4.981v-4.452a.955.955,0,0,1,1.056-1.056H882.4a.955.955,0,0,1,1.056,1.056V172.1a.955.955,0,0,1-1.056,1.056h-1.283a.955.955,0,0,1-1.056-1.056v-4.3h-4.981v4.3a.955.955,0,0,1-1.056,1.056h-1.207a.955.955,0,0,1-1.056-1.056Z" transform="translate(-142.483)"/><path class="c" d="M914.952,160.482a.955.955,0,0,1,1.056-1.056h6.49a.955.955,0,0,1,1.056,1.056v.755a.955.955,0,0,1-1.056,1.056h-4.15v2.49h3.094a.955.955,0,0,1,1.057,1.056v.755a.955.955,0,0,1-1.057,1.056h-3.094v2.566H922.8a.955.955,0,0,1,1.056,1.056v.755a.955.955,0,0,1-1.056,1.056h-6.716a.955.955,0,0,1-1.057-1.056V160.482Z" transform="translate(-171.569)"/><path class="c" d="M835.719,216.383a.955.955,0,0,1,1.057-1.056h4.679c2.641,0,4.452,1.962,4.452,4.754s-1.811,4.754-4.452,4.754h-2.339V228a.955.955,0,0,1-1.057,1.056h-1.283A.955.955,0,0,1,835.719,228Zm4.981,5.509c1.207,0,1.736-.755,1.736-1.887a1.628,1.628,0,0,0-1.66-1.811h-1.736v3.7Z" transform="translate(-118.219 -37.639)"/><path class="c" d="M871.293,216.383a.955.955,0,0,1,1.056-1.056h3.7a7.071,7.071,0,0,1,2.641.3,3.957,3.957,0,0,1,2.566,4,4.322,4.322,0,0,1-2.037,3.773v.075a3.45,3.45,0,0,1,.528.83l1.962,3.547c.453.755.075,1.283-.755,1.283h-1.434a1.328,1.328,0,0,1-1.283-.755l-1.962-4h-1.585V228a.955.955,0,0,1-1.056,1.056H872.35A.955.955,0,0,1,871.293,228Zm4.83,5.131a1.567,1.567,0,0,0,1.736-1.66c0-.679-.151-1.207-.83-1.434a2.784,2.784,0,0,0-1.283-.226h-1.132v3.32Z" transform="translate(-142.172 -37.639)"/><path class="c" d="M913.343,214.634a6.9,6.9,0,0,1,7.169,7.018,7.169,7.169,0,1,1-14.338,0A6.9,6.9,0,0,1,913.343,214.634Zm0,11.093a3.757,3.757,0,0,0,3.7-4.075,3.7,3.7,0,1,0-7.4,0A3.8,3.8,0,0,0,913.343,225.727Z" transform="translate(-165.658 -37.173)"/><path class="c" d="M955.451,216.383a.955.955,0,0,1,1.057-1.056h6.263a.955.955,0,0,1,1.056,1.056v.755a.955.955,0,0,1-1.056,1.056h-4v2.868h3.094a.955.955,0,0,1,1.056,1.056v.755a.955.955,0,0,1-1.056,1.056h-3.094V228a.955.955,0,0,1-1.057,1.056h-1.283A.955.955,0,0,1,955.376,228V216.383Z" transform="translate(-198.787 -37.639)"/><path class="c" d="M985.868,216.383a.955.955,0,0,1,1.057-1.056h6.49a.955.955,0,0,1,1.056,1.056v.755a.955.955,0,0,1-1.056,1.056h-4.151v2.49h3.094a.955.955,0,0,1,1.056,1.056v.755a.955.955,0,0,1-1.056,1.056h-3.094v2.566h4.452a.955.955,0,0,1,1.056,1.056v.755a.955.955,0,0,1-1.056,1.056H987a.955.955,0,0,1-1.057-1.056V216.383Z" transform="translate(-219.318 -37.639)"/><path class="c" d="M1016.227,225.8l.6-.83a.929.929,0,0,1,1.434-.226,4.985,4.985,0,0,0,2.49.83c.981,0,1.434-.453,1.434-.981,0-1.962-6.037-1.66-6.037-5.962,0-2.566,2.113-4.226,4.905-4.226a7.252,7.252,0,0,1,3.7.981,1.007,1.007,0,0,1,.3,1.434l-.453.906c-.377.755-.905.6-1.434.377a4.675,4.675,0,0,0-2.188-.6c-1.056,0-1.509.453-1.509.981,0,1.962,6.037,1.509,6.037,5.886,0,2.264-1.736,4.3-4.83,4.3a7.686,7.686,0,0,1-4.377-1.358A1.039,1.039,0,0,1,1016.227,225.8Z" transform="translate(-239.565 -37.017)"/><path class="c" d="M1049.029,225.8l.6-.83a.929.929,0,0,1,1.434-.226,4.985,4.985,0,0,0,2.49.83c.981,0,1.433-.453,1.433-.981,0-1.962-6.037-1.66-6.037-5.962,0-2.566,2.113-4.226,4.9-4.226a7.252,7.252,0,0,1,3.7.981,1.006,1.006,0,0,1,.3,1.434l-.453.906c-.377.755-.906.6-1.434.377a4.676,4.676,0,0,0-2.188-.6c-1.056,0-1.509.453-1.509.981,0,1.962,6.037,1.509,6.037,5.886,0,2.264-1.736,4.3-4.829,4.3a7.687,7.687,0,0,1-4.377-1.358A1.039,1.039,0,0,1,1049.029,225.8Z" transform="translate(-261.651 -37.017)"/><path class="c" d="M1083.58,216.383a.955.955,0,0,1,1.057-1.056h1.283a.955.955,0,0,1,1.056,1.056V228a.955.955,0,0,1-1.056,1.056h-1.283A.955.955,0,0,1,1083.58,228Z" transform="translate(-285.109 -37.639)"/><path class="c" d="M1106.457,214.634a6.9,6.9,0,0,1,7.169,7.018,7.169,7.169,0,1,1-14.338,0A6.9,6.9,0,0,1,1106.457,214.634Zm0,11.093a3.757,3.757,0,0,0,3.7-4.075,3.7,3.7,0,1,0-7.4,0A3.8,3.8,0,0,0,1106.457,225.727Z" transform="translate(-295.686 -37.173)"/><path class="c" d="M1148.722,216.228a.955.955,0,0,1,1.057-1.056h1.509a1.4,1.4,0,0,1,1.283.679l3.4,5.66a25.239,25.239,0,0,1,1.132,2.339h.075s-.151-1.509-.151-2.339v-5.358a.955.955,0,0,1,1.057-1.057h1.283a.955.955,0,0,1,1.056,1.057v11.7a.955.955,0,0,1-1.056,1.057h-1.509a1.4,1.4,0,0,1-1.283-.679l-3.4-5.66a25.272,25.272,0,0,1-1.132-2.339h-.075s.151,1.509.151,2.339v5.282a.955.955,0,0,1-1.056,1.057h-1.283a.955.955,0,0,1-1.057-1.057Z" transform="translate(-328.971 -37.484)"/><path class="c" d="M1192.007,216.157a1.139,1.139,0,0,1,1.207-.83h1.736a1.225,1.225,0,0,1,1.208.83l4,11.621c.226.755-.075,1.207-.83,1.207h-1.283a1.2,1.2,0,0,1-1.207-.906l-.6-1.962h-4.3l-.6,1.962a1.1,1.1,0,0,1-1.207.906h-1.283c-.755,0-1.132-.453-.83-1.207Zm3.4,7.32-.755-2.641c-.226-.83-.528-2.339-.528-2.339h-.075s-.3,1.509-.528,2.339l-.755,2.641Z" transform="translate(-355.353 -37.639)"/><path class="c" d="M1229.571,216.383a.955.955,0,0,1,1.057-1.056h1.283a.955.955,0,0,1,1.057,1.056v9.81h4.528a.955.955,0,0,1,1.056,1.056V228a.955.955,0,0,1-1.056,1.056h-6.867a.955.955,0,0,1-1.057-1.056Z" transform="translate(-383.408 -37.639)"/><path class="b" d="M835.883,272.059a1.139,1.139,0,0,1,1.207-.83h1.736a1.224,1.224,0,0,1,1.207.83l3.924,11.7c.226.755-.075,1.207-.83,1.207h-1.283a1.2,1.2,0,0,1-1.207-.906l-.6-1.962h-4.3l-.6,1.962a1.1,1.1,0,0,1-1.207.906h-1.283c-.755,0-1.132-.453-.83-1.207Zm3.4,7.32-.755-2.641c-.226-.83-.528-2.339-.528-2.339h-.076s-.3,1.509-.528,2.339l-.755,2.641Z" transform="translate(-115.516 -75.279)"/><path class="b" d="M873.6,272.285a.955.955,0,0,1,1.057-1.056h1.283A.955.955,0,0,1,877,272.285v9.81h4.528a.955.955,0,0,1,1.056,1.056v.755a.955.955,0,0,1-1.056,1.056H874.66a.955.955,0,0,1-1.057-1.056Z" transform="translate(-143.727 -75.279)"/><path class="b" d="M905.242,274.1h-3.094a.955.955,0,0,1-1.057-1.056v-.755a.955.955,0,0,1,1.057-1.056h9.583a.955.955,0,0,1,1.056,1.056v.755a.955.955,0,0,1-1.056,1.056h-3.094v9.81a.955.955,0,0,1-1.056,1.056H906.3a.955.955,0,0,1-1.056-1.056Z" transform="translate(-162.236 -75.279)"/><path class="b" d="M940.592,272.285a.955.955,0,0,1,1.056-1.056h6.49a.955.955,0,0,1,1.056,1.056v.755a.955.955,0,0,1-1.056,1.056h-4.15v2.49h3.094a.955.955,0,0,1,1.057,1.056v.755a.955.955,0,0,1-1.057,1.056h-3.094v2.566h4.452a.955.955,0,0,1,1.056,1.056v.755a.955.955,0,0,1-1.056,1.056h-6.716a.955.955,0,0,1-1.056-1.056V272.285Z" transform="translate(-188.833 -75.279)"/><path class="b" d="M972.777,272.285a.955.955,0,0,1,1.056-1.056h3.7a7.071,7.071,0,0,1,2.641.3,3.957,3.957,0,0,1,2.566,4A4.322,4.322,0,0,1,980.7,279.3v.075a3.452,3.452,0,0,1,.528.83l1.962,3.547c.453.755.075,1.283-.755,1.283H981a1.328,1.328,0,0,1-1.283-.755l-2.038-3.849H976.1v3.547a.955.955,0,0,1-1.057,1.056h-1.283a.955.955,0,0,1-1.056-1.056v-11.7Zm4.83,5.131a1.567,1.567,0,0,0,1.736-1.66c0-.679-.151-1.207-.83-1.434a2.784,2.784,0,0,0-1.283-.226H976.1v3.32Z" transform="translate(-210.452 -75.279)"/><path class="b" d="M1010.123,272.13a.955.955,0,0,1,1.057-1.056h1.509a1.4,1.4,0,0,1,1.283.679l3.4,5.66a25.255,25.255,0,0,1,1.132,2.339h.075s-.151-1.509-.151-2.339v-5.358A.955.955,0,0,1,1019.48,271h1.283a.955.955,0,0,1,1.056,1.056v11.621a.955.955,0,0,1-1.056,1.056h-1.509a1.4,1.4,0,0,1-1.283-.679l-3.4-5.66a25.265,25.265,0,0,1-1.132-2.339h-.075s.151,1.509.151,2.339v5.358a.955.955,0,0,1-1.057,1.056h-1.283a.955.955,0,0,1-1.057-1.056Z" transform="translate(-235.649 -75.124)"/><path class="b" d="M1053.409,272.059a1.139,1.139,0,0,1,1.207-.83h1.736a1.224,1.224,0,0,1,1.207.83l4,11.621c.226.755-.075,1.207-.83,1.207h-1.283a1.2,1.2,0,0,1-1.207-.906l-.6-1.962h-4.3l-.6,1.962a1.1,1.1,0,0,1-1.207.906h-1.283c-.755,0-1.132-.453-.83-1.207Zm3.4,7.32-.755-2.641c-.226-.83-.528-2.339-.528-2.339h-.075s-.3,1.509-.528,2.339l-.755,2.641Z" transform="translate(-262.031 -75.279)"/><path class="b" d="M1091.426,274.1h-3.094a.955.955,0,0,1-1.057-1.056v-.755a.955.955,0,0,1,1.057-1.056h9.584a.955.955,0,0,1,1.057,1.056v.755a.955.955,0,0,1-1.057,1.056h-3.094v9.81a.955.955,0,0,1-1.056,1.056h-1.283a.955.955,0,0,1-1.057-1.056V274.1Z" transform="translate(-287.598 -75.279)"/><path class="b" d="M1126.777,272.285a.955.955,0,0,1,1.057-1.056h1.283a.955.955,0,0,1,1.056,1.056v11.621a.955.955,0,0,1-1.056,1.056h-1.283a.955.955,0,0,1-1.057-1.056Z" transform="translate(-314.195 -75.279)"/><path class="b" d="M1140.948,272.436c-.226-.755.075-1.207.83-1.207h1.434a1.2,1.2,0,0,1,1.207.906l2.113,6.943a15.665,15.665,0,0,1,.528,2.188h.075a15.714,15.714,0,0,1,.528-2.188l2.189-6.943a1.1,1.1,0,0,1,1.207-.906h1.358c.755,0,1.132.453.83,1.207l-4.075,11.7a1.139,1.139,0,0,1-1.207.83h-1.66a1.224,1.224,0,0,1-1.207-.83Z" transform="translate(-323.687 -75.279)"/><path class="b" d="M1182.91,272.285a.955.955,0,0,1,1.057-1.056h6.49a.955.955,0,0,1,1.057,1.056v.755a.955.955,0,0,1-1.057,1.056h-4.15v2.49h3.094a.955.955,0,0,1,1.057,1.056v.755a.955.955,0,0,1-1.057,1.056h-3.094v2.566h4.452a.955.955,0,0,1,1.056,1.056v.755a.955.955,0,0,1-1.056,1.056h-6.716a.955.955,0,0,1-1.056-1.056V272.285Z" transform="translate(-351.99 -75.279)"/></g></svg>