<svg xmlns="http://www.w3.org/2000/svg" width="195" height="52.523" viewBox="0 0 195 52.523"><defs><style>.a{fill:#d91e39;}.b{fill:#ffffff;}</style></defs><g transform="translate(-7.878)"><path class="a" d="M40.6,35.806V30.838c-.123-1.1-1.963-2.085-1.963-2.085L3.616,15.628l-.859-.307C-.248,14.585,0,17.345,0,17.345v3.5c0,1.472,2.331,2.208,2.331,2.208l31.279,10.3L2.328,43.657S.058,44.392.058,45.864L0,49.422s-.245,2.821,2.76,2.024l.859-.307,35.02-13.064s1.84-.981,1.963-2.085V33.414" transform="translate(7.886 -7.209)"/><path class="b" d="M78.731,2.992H75.5a1,1,0,0,1-1.1-1.1V1.1A1,1,0,0,1,75.5,0h10a1,1,0,0,1,1.1,1.1V1.89a1,1,0,0,1-1.1,1.1H82.275V13.229a1,1,0,0,1-1.1,1.1H79.833a1,1,0,0,1-1.1-1.1Z" transform="translate(-16.414 0)"/><path class="b" d="M91.6,1.1A.964.964,0,0,1,92.7,0h1.339a.975.975,0,0,1,1.024,1.1V5.748h5.2V1.1a1,1,0,0,1,1.1-1.1H102.7a1,1,0,0,1,1.1,1.1V13.229a1,1,0,0,1-1.1,1.1h-1.339a1,1,0,0,1-1.1-1.1V8.741h-5.2v4.488a1,1,0,0,1-1.1,1.1H92.7a1,1,0,0,1-1.1-1.1Z" transform="translate(-20.07 0)"/><path class="b" d="M110.3,1.1A1,1,0,0,1,111.4,0h6.772a1,1,0,0,1,1.1,1.1V1.89a1,1,0,0,1-1.1,1.1h-4.331v2.6h3.229a1,1,0,0,1,1.1,1.1v.787a1,1,0,0,1-1.1,1.1h-3.229v2.677h4.646a1,1,0,0,1,1.1,1.1v.787a1,1,0,0,1-1.1,1.1h-7.008a1,1,0,0,1-1.1-1.1V1.1Z" transform="translate(-24.044 0)"/><path class="b" d="M76,25.3a1,1,0,0,1,1.1-1.1h4.882c2.756,0,4.646,2.047,4.646,4.961s-1.89,4.961-4.646,4.961H79.544v3.307a1,1,0,0,1-1.1,1.1H77.1a1,1,0,0,1-1.1-1.1Zm5.2,5.748c1.26,0,1.811-.787,1.811-1.969a1.7,1.7,0,0,0-1.732-1.89H79.465v3.859Z" transform="translate(-16.754 -5.144)"/><path class="b" d="M91.4,25.3a1,1,0,0,1,1.1-1.1h3.859a7.379,7.379,0,0,1,2.756.315,4.129,4.129,0,0,1,2.677,4.174,4.51,4.51,0,0,1-2.126,3.937V32.7a3.6,3.6,0,0,1,.551.866l2.047,3.7c.472.787.079,1.339-.787,1.339h-1.5a1.386,1.386,0,0,1-1.339-.787L96.6,33.649H94.944v3.78a1,1,0,0,1-1.1,1.1H92.5a1,1,0,0,1-1.1-1.1Zm5.04,5.355a1.635,1.635,0,0,0,1.811-1.732c0-.709-.157-1.26-.866-1.5a2.905,2.905,0,0,0-1.339-.236H94.865v3.465Z" transform="translate(-20.027 -5.144)"/><path class="b" d="M113.981,23.9a7.2,7.2,0,0,1,7.481,7.323,7.481,7.481,0,1,1-14.962,0A7.2,7.2,0,0,1,113.981,23.9Zm0,11.576c2.284,0,3.859-1.811,3.859-4.252a3.865,3.865,0,1,0-7.717,0A3.967,3.967,0,0,0,113.981,35.476Z" transform="translate(-23.237 -5.08)"/><path class="b" d="M127.879,25.3a1,1,0,0,1,1.1-1.1h6.536a1,1,0,0,1,1.1,1.1v.787a1,1,0,0,1-1.1,1.1h-4.174v2.992h3.229a1,1,0,0,1,1.1,1.1v.787a1,1,0,0,1-1.1,1.1h-3.229v4.252a1,1,0,0,1-1.1,1.1H128.9a1,1,0,0,1-1.1-1.1V25.3Z" transform="translate(-27.764 -5.144)"/><path class="b" d="M141,25.3a1,1,0,0,1,1.1-1.1h6.772a1,1,0,0,1,1.1,1.1v.787a1,1,0,0,1-1.1,1.1h-4.331v2.6h3.229a1,1,0,0,1,1.1,1.1v.787a1,1,0,0,1-1.1,1.1h-3.229v2.677h4.646a1,1,0,0,1,1.1,1.1v.787a1,1,0,0,1-1.1,1.1h-7.008a1,1,0,0,1-1.1-1.1V25.3Z" transform="translate(-30.569 -5.144)"/><path class="b" d="M154.319,35.691l.63-.866a.969.969,0,0,1,1.5-.236,5.2,5.2,0,0,0,2.6.866c1.024,0,1.5-.472,1.5-1.024,0-2.047-6.3-1.732-6.3-6.221,0-2.677,2.2-4.41,5.118-4.41a7.568,7.568,0,0,1,3.859,1.024,1.05,1.05,0,0,1,.315,1.5l-.472.945c-.394.787-.945.63-1.5.394a4.879,4.879,0,0,0-2.284-.63c-1.1,0-1.575.472-1.575,1.024,0,2.047,6.3,1.575,6.3,6.142,0,2.362-1.811,4.488-5.04,4.488a8.021,8.021,0,0,1-4.567-1.417A1.085,1.085,0,0,1,154.319,35.691Z" transform="translate(-33.336 -5.059)"/><path class="b" d="M168.519,35.691l.63-.866a.969.969,0,0,1,1.5-.236,5.2,5.2,0,0,0,2.6.866c1.024,0,1.5-.472,1.5-1.024,0-2.047-6.3-1.732-6.3-6.221,0-2.677,2.2-4.41,5.118-4.41a7.568,7.568,0,0,1,3.859,1.024,1.05,1.05,0,0,1,.315,1.5l-.472.945c-.394.787-.945.63-1.5.394a4.879,4.879,0,0,0-2.284-.63c-1.1,0-1.575.472-1.575,1.024,0,2.047,6.3,1.575,6.3,6.142,0,2.362-1.811,4.488-5.04,4.488a8.021,8.021,0,0,1-4.567-1.417A1.085,1.085,0,0,1,168.519,35.691Z" transform="translate(-36.354 -5.059)"/><path class="b" d="M183.3,25.3a1,1,0,0,1,1.1-1.1h1.339a1,1,0,0,1,1.1,1.1V37.429a1,1,0,0,1-1.1,1.1H184.4a1,1,0,0,1-1.1-1.1Z" transform="translate(-39.56 -5.144)"/><path class="b" d="M197.581,23.9a7.2,7.2,0,0,1,7.481,7.323,7.481,7.481,0,1,1-14.962,0A7.2,7.2,0,0,1,197.581,23.9Zm0,11.576c2.284,0,3.859-1.811,3.859-4.252a3.865,3.865,0,1,0-7.717,0A3.967,3.967,0,0,0,197.581,35.476Z" transform="translate(-41.005 -5.08)"/><path class="b" d="M211.5,25.281a1,1,0,0,1,1.1-1.1h1.575a1.459,1.459,0,0,1,1.339.709l3.544,5.906a26.363,26.363,0,0,1,1.181,2.441h.079s-.157-1.575-.157-2.441V25.2a1,1,0,0,1,1.1-1.1H222.6a1,1,0,0,1,1.1,1.1V37.408a1,1,0,0,1-1.1,1.1h-1.575a1.459,1.459,0,0,1-1.339-.709L216.146,31.9a26.361,26.361,0,0,1-1.181-2.441h-.079s.158,1.575.158,2.441v5.512a1,1,0,0,1-1.1,1.1H212.6a1,1,0,0,1-1.1-1.1Z" transform="translate(-45.554 -5.122)"/><path class="b" d="M232.744,25.066A1.189,1.189,0,0,1,234,24.2h1.811a1.277,1.277,0,0,1,1.26.866l4.174,12.127c.236.787-.079,1.26-.866,1.26h-1.339a1.255,1.255,0,0,1-1.26-.945l-.63-2.047h-4.488l-.63,2.047a1.146,1.146,0,0,1-1.26.945h-1.339c-.787,0-1.181-.472-.866-1.26Zm3.544,7.638-.787-2.756c-.236-.866-.551-2.441-.551-2.441h-.079s-.315,1.575-.551,2.441l-.787,2.756Z" transform="translate(-49.159 -5.144)"/><path class="b" d="M246.5,25.3a1,1,0,0,1,1.1-1.1h1.339a1,1,0,0,1,1.1,1.1V35.539h4.725a1,1,0,0,1,1.1,1.1v.787a1,1,0,0,1-1.1,1.1H247.6a1,1,0,0,1-1.1-1.1Z" transform="translate(-52.993 -5.144)"/><path class="a" d="M78.623,49.266a1.189,1.189,0,0,1,1.26-.866h1.811a1.278,1.278,0,0,1,1.26.866l4.095,12.206c.236.787-.079,1.26-.866,1.26H84.844a1.255,1.255,0,0,1-1.26-.945l-.63-2.047H78.465l-.63,2.047a1.146,1.146,0,0,1-1.26.945H75.237c-.787,0-1.181-.472-.866-1.26ZM82.166,56.9l-.787-2.756c-.236-.866-.551-2.441-.551-2.441h-.079s-.315,1.575-.551,2.441L79.41,56.9Z" transform="translate(-16.384 -10.287)"/><path class="a" d="M92.4,49.5a1,1,0,0,1,1.1-1.1h1.339a1,1,0,0,1,1.1,1.1V59.739h4.725a1,1,0,0,1,1.1,1.1v.787a1,1,0,0,1-1.1,1.1H93.5a1,1,0,0,1-1.1-1.1Z" transform="translate(-20.24 -10.287)"/><path class="a" d="M108.631,51.392H105.4a1,1,0,0,1-1.1-1.1V49.5a1,1,0,0,1,1.1-1.1h10a1,1,0,0,1,1.1,1.1v.787a1,1,0,0,1-1.1,1.1h-3.229V61.629a1,1,0,0,1-1.1,1.1h-1.339a1,1,0,0,1-1.1-1.1Z" transform="translate(-22.769 -10.287)"/><path class="a" d="M121.4,49.5a1,1,0,0,1,1.1-1.1h6.772a1,1,0,0,1,1.1,1.1v.787a1,1,0,0,1-1.1,1.1h-4.331v2.6h3.229a1,1,0,0,1,1.1,1.1v.787a1,1,0,0,1-1.1,1.1h-3.229v2.677h4.646a1,1,0,0,1,1.1,1.1v.787a1,1,0,0,1-1.1,1.1h-7.008a1,1,0,0,1-1.1-1.1V49.5Z" transform="translate(-26.403 -10.287)"/><path class="a" d="M135.379,49.5a1,1,0,0,1,1.1-1.1h3.859a7.379,7.379,0,0,1,2.756.315,4.129,4.129,0,0,1,2.677,4.174,4.51,4.51,0,0,1-2.126,3.937V56.9a3.6,3.6,0,0,1,.551.866l2.047,3.7c.473.787.079,1.339-.787,1.339h-1.5a1.386,1.386,0,0,1-1.339-.787L140.5,58.007h-1.654v3.7a1,1,0,0,1-1.1,1.1H136.4a1,1,0,0,1-1.1-1.1V49.5Zm5.04,5.355a1.635,1.635,0,0,0,1.811-1.732c0-.709-.158-1.26-.866-1.5a2.905,2.905,0,0,0-1.339-.236h-1.181v3.465Z" transform="translate(-29.358 -10.287)"/><path class="a" d="M151.5,49.481a1,1,0,0,1,1.1-1.1h1.575a1.459,1.459,0,0,1,1.339.709l3.544,5.906a26.361,26.361,0,0,1,1.181,2.441h.079s-.158-1.575-.158-2.441V49.4a1,1,0,0,1,1.1-1.1H162.6a1,1,0,0,1,1.1,1.1V61.529a1,1,0,0,1-1.1,1.1h-1.575a1.459,1.459,0,0,1-1.339-.709l-3.544-5.906a26.361,26.361,0,0,1-1.181-2.441h-.079s.158,1.575.158,2.441v5.591a1,1,0,0,1-1.1,1.1H152.6a1,1,0,0,1-1.1-1.1Z" transform="translate(-32.801 -10.266)"/><path class="a" d="M172.744,49.266A1.189,1.189,0,0,1,174,48.4h1.811a1.277,1.277,0,0,1,1.26.866l4.174,12.127c.236.787-.079,1.26-.866,1.26h-1.339a1.255,1.255,0,0,1-1.26-.945l-.63-2.047h-4.488l-.63,2.047a1.146,1.146,0,0,1-1.26.945h-1.339c-.787,0-1.181-.472-.866-1.26Zm3.544,7.638-.787-2.756c-.236-.866-.551-2.441-.551-2.441h-.079s-.315,1.575-.551,2.441l-.788,2.756Z" transform="translate(-36.406 -10.287)"/><path class="a" d="M189.231,51.392H186a1,1,0,0,1-1.1-1.1V49.5a1,1,0,0,1,1.1-1.1h10a1,1,0,0,1,1.1,1.1v.787a1,1,0,0,1-1.1,1.1h-3.229V61.629a1,1,0,0,1-1.1,1.1h-1.339a1,1,0,0,1-1.1-1.1V51.392Z" transform="translate(-39.9 -10.287)"/><path class="a" d="M202,49.5a1,1,0,0,1,1.1-1.1h1.339a1,1,0,0,1,1.1,1.1V61.629a1,1,0,0,1-1.1,1.1H203.1a1,1,0,0,1-1.1-1.1Z" transform="translate(-43.535 -10.287)"/><path class="a" d="M208.179,49.66c-.236-.787.079-1.26.866-1.26h1.5a1.255,1.255,0,0,1,1.26.945l2.2,7.245a16.364,16.364,0,0,1,.551,2.284h.079a16.367,16.367,0,0,1,.551-2.284l2.284-7.245a1.146,1.146,0,0,1,1.26-.945h1.417c.787,0,1.181.472.866,1.26l-4.252,12.206a1.189,1.189,0,0,1-1.26.866H213.77a1.278,1.278,0,0,1-1.26-.866Z" transform="translate(-44.832 -10.287)"/><path class="a" d="M226.3,49.5a1,1,0,0,1,1.1-1.1h6.772a1,1,0,0,1,1.1,1.1v.787a1,1,0,0,1-1.1,1.1h-4.331v2.6h3.229a1,1,0,0,1,1.1,1.1v.787a1,1,0,0,1-1.1,1.1h-3.229v2.677h4.646a1,1,0,0,1,1.1,1.1v.787a1,1,0,0,1-1.1,1.1h-7.008a1,1,0,0,1-1.1-1.1V49.5Z" transform="translate(-48.699 -10.287)"/></g></svg>